<svg width="16" height="16" viewBox="0 0 16 16" fill="none" xmlns="http://www.w3.org/2000/svg">
<path d="M11.5607 3.63998C11.4024 3.63998 11.2478 3.6869 11.1162 3.7748C10.9846 3.86271 10.8821 3.98765 10.8215 4.13383C10.761 4.28001 10.7452 4.44087 10.776 4.59605C10.8069 4.75124 10.8831 4.89378 10.995 5.00567C11.1068 5.11755 11.2494 5.19374 11.4046 5.22461C11.5598 5.25548 11.7206 5.23963 11.8668 5.17908C12.013 5.11853 12.1379 5.016 12.2258 4.88444C12.3137 4.75288 12.3607 4.5982 12.3607 4.43998C12.3607 4.22781 12.2764 4.02432 12.1263 3.87429C11.9763 3.72427 11.7728 3.63998 11.5607 3.63998ZM14.6273 5.25331C14.6144 4.70018 14.5108 4.15292 14.3207 3.63331C14.1511 3.18873 13.8873 2.78617 13.5473 2.45331C13.2172 2.1116 12.8137 1.84943 12.3673 1.68665C11.8491 1.49075 11.3012 1.38479 10.7473 1.37331C10.0407 1.33331 9.81398 1.33331 8.00065 1.33331C6.18732 1.33331 5.96065 1.33331 5.25398 1.37331C4.70009 1.38479 4.15221 1.49075 3.63398 1.68665C3.18844 1.85108 2.78527 2.11302 2.45398 2.45331C2.11227 2.78343 1.8501 3.18694 1.68732 3.63331C1.49142 4.15154 1.38546 4.69941 1.37398 5.25331C1.33398 5.95998 1.33398 6.18665 1.33398 7.99998C1.33398 9.81331 1.33398 10.04 1.37398 10.7466C1.38546 11.3005 1.49142 11.8484 1.68732 12.3666C1.8501 12.813 2.11227 13.2165 2.45398 13.5466C2.78527 13.8869 3.18844 14.1489 3.63398 14.3133C4.15221 14.5092 4.70009 14.6152 5.25398 14.6266C5.96065 14.6666 6.18732 14.6666 8.00065 14.6666C9.81398 14.6666 10.0407 14.6666 10.7473 14.6266C11.3012 14.6152 11.8491 14.5092 12.3673 14.3133C12.8137 14.1505 13.2172 13.8884 13.5473 13.5466C13.8888 13.215 14.1529 12.8121 14.3207 12.3666C14.5108 11.847 14.6144 11.2998 14.6273 10.7466C14.6273 10.04 14.6673 9.81331 14.6673 7.99998C14.6673 6.18665 14.6673 5.95998 14.6273 5.25331ZM13.4273 10.6666C13.4225 11.0898 13.3458 11.5091 13.2007 11.9066C13.0942 12.1968 12.9232 12.4589 12.7007 12.6733C12.4844 12.8937 12.2228 13.0643 11.934 13.1733C11.5365 13.3185 11.1172 13.3951 10.694 13.4C10.0273 13.4333 9.78065 13.44 8.02732 13.44C6.27398 13.44 6.02732 13.44 5.36065 13.4C4.92124 13.4082 4.48371 13.3405 4.06732 13.2C3.79117 13.0854 3.54156 12.9152 3.33398 12.7C3.11271 12.4858 2.94388 12.2234 2.84065 11.9333C2.67789 11.5301 2.58761 11.1013 2.57398 10.6666C2.57398 9.99998 2.53398 9.75331 2.53398 7.99998C2.53398 6.24665 2.53398 5.99998 2.57398 5.33331C2.57697 4.90068 2.65595 4.47194 2.80732 4.06665C2.92468 3.78525 3.10483 3.53442 3.33398 3.33331C3.53653 3.10409 3.78684 2.92204 4.06732 2.79998C4.47369 2.65334 4.90198 2.5767 5.33398 2.57331C6.00065 2.57331 6.24732 2.53331 8.00065 2.53331C9.75398 2.53331 10.0007 2.53331 10.6673 2.57331C11.0905 2.57817 11.5098 2.65481 11.9073 2.79998C12.2103 2.91241 12.4822 3.09521 12.7007 3.33331C12.9191 3.5381 13.0898 3.78847 13.2007 4.06665C13.3488 4.4726 13.4255 4.90117 13.4273 5.33331C13.4607 5.99998 13.4673 6.24665 13.4673 7.99998C13.4673 9.75331 13.4607 9.99998 13.4273 10.6666ZM8.00065 4.57998C7.32452 4.5813 6.66396 4.783 6.10242 5.15959C5.54088 5.53619 5.10357 6.07078 4.84574 6.69582C4.58791 7.32085 4.52113 8.00829 4.65385 8.67127C4.78656 9.33424 5.11281 9.943 5.59137 10.4206C6.06993 10.8983 6.67933 11.2233 7.34256 11.3547C8.00579 11.4862 8.6931 11.4181 9.31763 11.159C9.94217 10.9 10.4759 10.4616 10.8514 9.89934C11.2269 9.33706 11.4273 8.67611 11.4273 7.99998C11.4282 7.55005 11.3401 7.10438 11.1681 6.68862C10.9962 6.27285 10.7437 5.89519 10.4252 5.57735C10.1068 5.25951 9.72862 5.00777 9.31252 4.8366C8.89642 4.66543 8.45058 4.57822 8.00065 4.57998ZM8.00065 10.22C7.56158 10.22 7.13236 10.0898 6.76729 9.84584C6.40221 9.60191 6.11767 9.25519 5.94964 8.84954C5.78161 8.44389 5.73765 7.99752 5.82331 7.56688C5.90897 7.13624 6.1204 6.74068 6.43087 6.4302C6.74135 6.11973 7.13691 5.9083 7.56755 5.82264C7.99819 5.73698 8.44456 5.78094 8.85021 5.94897C9.25586 6.11699 9.60258 6.40154 9.84651 6.76661C10.0905 7.13169 10.2207 7.56091 10.2207 7.99998C10.2207 8.29151 10.1632 8.58019 10.0517 8.84954C9.9401 9.11888 9.77657 9.36361 9.57043 9.56976C9.36428 9.7759 9.11955 9.93943 8.85021 10.051C8.58087 10.1626 8.29219 10.22 8.00065 10.22Z" fill="black"/>
</svg>
