<svg width="23" height="24" viewBox="0 0 23 24" fill="none" xmlns="http://www.w3.org/2000/svg">
<path d="M16.291 18.4297H12.4577L8.19309 21.3897C7.56059 21.8297 6.70768 21.3598 6.70768 20.5598V18.4297C3.83268 18.4297 1.91602 16.4297 1.91602 13.4297V7.42969C1.91602 4.42969 3.83268 2.42969 6.70768 2.42969H16.291C19.166 2.42969 21.0827 4.42969 21.0827 7.42969V13.4297C21.0827 16.4297 19.166 18.4297 16.291 18.4297Z" stroke="black" stroke-width="1.5" stroke-miterlimit="10" stroke-linecap="round" stroke-linejoin="round"/>
<path d="M11.501 11.3594V11.1494C11.501 10.4694 11.9035 10.1094 12.306 9.8194C12.6989 9.5394 13.0918 9.17941 13.0918 8.51941C13.0918 7.59941 12.3826 6.85938 11.501 6.85938C10.6193 6.85938 9.91016 7.59941 9.91016 8.51941" stroke="black" stroke-width="1.5" stroke-linecap="round" stroke-linejoin="round"/>
<path d="M11.4963 13.75H11.505" stroke="black" stroke-width="1.5" stroke-linecap="round" stroke-linejoin="round"/>
</svg>
