<svg width="24" height="24" viewBox="0 0 24 24" fill="none" xmlns="http://www.w3.org/2000/svg">
<path d="M22.9991 9.71001C23.0485 8.27867 22.7355 6.85803 22.0891 5.58001C21.6505 5.05561 21.0418 4.70172 20.3691 4.58001C17.5866 4.32754 14.7926 4.22406 11.9991 4.27001C9.2157 4.22197 6.43176 4.32211 3.65905 4.57001C3.11087 4.66973 2.60357 4.92686 2.19905 5.31001C1.29905 6.14001 1.19905 7.56001 1.09905 8.76002C0.953962 10.9176 0.953962 13.0825 1.09905 15.24C1.12798 15.9154 1.22854 16.5858 1.39905 17.24C1.51963 17.7451 1.76357 18.2124 2.10905 18.6C2.51632 19.0035 3.03543 19.2752 3.59905 19.38C5.75497 19.6461 7.92727 19.7564 10.0991 19.71C13.5991 19.76 16.669 19.71 20.299 19.43C20.8765 19.3317 21.4102 19.0596 21.8291 18.65C22.109 18.3699 22.3181 18.0271 22.4391 17.65C22.7967 16.5526 22.9723 15.4041 22.959 14.25C22.9991 13.69 22.9991 10.31 22.9991 9.71001ZM9.73905 14.85V8.66001L15.659 11.77C13.9991 12.69 11.809 13.73 9.73905 14.85Z" fill="black"/>
</svg>
